<?xml version="1.0" standalone="no"?>
<!DOCTYPE svg PUBLIC "-//W3C//DTD SVG 20010904//EN"
 "http://www.w3.org/TR/2001/REC-SVG-20010904/DTD/svg10.dtd">
<svg version="1.0" xmlns="http://www.w3.org/2000/svg"
 width="2048.000000pt" height="2048.000000pt" viewBox="0 0 2048.000000 2048.000000"
 preserveAspectRatio="xMidYMid meet">
<metadata>
Created by potrace 1.14, written by Peter Selinger 2001-2017
</metadata>
<g transform="translate(0.000000,2048.000000) scale(0.100000,-0.100000)"
fill="#000000" stroke="none">
<path d="M0 17510 c0 -1633 3 -2970 8 -2971 4 0 149 -1 322 -1 217 -1 317 -4
322 -12 4 -6 8 4 8 22 0 47 44 333 75 487 327 1628 1332 3060 2760 3932 548
335 1180 591 1800 729 180 40 471 91 576 100 39 4 69 12 70 18 1 15 1 638 0
654 -1 9 -602 12 -2971 12 l-2970 0 0 -2970z"/>
<path d="M7223 20146 l0 -334 66 -6 c219 -22 541 -81 802 -146 2054 -517 3702
-2109 4289 -4144 83 -285 162 -665 186 -886 4 -36 10 -72 14 -80 7 -13 51 -15
312 -13 166 1 317 2 334 2 l31 1 0 2970 0 2970 -3017 0 -3016 0 -1 -334z"/>
<path d="M14630 17555 l0 -2925 2925 0 2925 0 0 2925 0 2925 -2925 0 -2925 0
0 -2925z"/>
<path d="M7223 16245 c0 -1227 3 -1705 11 -1706 60 -4 3468 -1 3472 4 6 5 -10
120 -22 160 -5 16 -92 17 -1639 17 -1297 0 -1634 3 -1637 13 -2 6 -3 724 -3
1595 0 870 -2 1586 -5 1591 -5 7 -130 31 -163 31 -12 0 -14 -255 -14 -1705z"/>
<path d="M5850 17929 c-25 -5 -55 -12 -67 -15 l-23 -4 0 -1595 0 -1595 -1604
0 -1604 0 -16 -87 c-9 -47 -14 -89 -11 -91 3 -3 772 -6 1710 -6 1698 -1 1705
-1 1706 19 1 26 1 3344 0 3368 -1 19 -19 20 -91 6z"/>
<path d="M0 10240 l0 -3017 2970 0 c2708 0 2970 2 2971 16 1 20 1 577 0 613
-1 24 -5 27 -53 33 -129 15 -436 69 -582 101 -1397 309 -2653 1127 -3518 2294
-354 477 -659 1061 -853 1631 -135 396 -244 888 -282 1269 l-8 75 -322 1 -323
1 0 -3017z"/>
<path d="M2505 13236 c2 -12 9 -53 15 -91 l11 -71 1612 0 1612 0 3 -1650 2
-1651 73 -12 c39 -7 81 -15 92 -17 20 -5 20 0 18 1738 -1 959 -2 1750 -2 1759
-1 14 -155 16 -1721 16 l-1720 0 5 -21z"/>
<path d="M7224 11496 l1 -1761 30 3 c17 1 57 7 90 13 l61 10 -1 1655 c0 1094
3 1655 10 1657 6 1 745 2 1643 2 1120 -1 1636 2 1641 10 7 8 31 136 31 163 0
5 -733 9 -1753 9 l-1754 0 1 -1761z"/>
<path d="M12586 13216 c-3 -23 -17 -124 -31 -226 -147 -1068 -610 -2116 -1307
-2958 l-80 -97 128 -122 129 -122 365 -1 365 0 551 -551 551 -551 -1 2334 -1
2333 -332 1 -332 1 -5 -41z"/>
<path d="M14630 10240 l0 -2925 2925 -1 2925 0 0 2926 0 2926 -2925 0 -2925 0
0 -2926z"/>
<path d="M10425 9209 c-376 -311 -845 -607 -1285 -810 -549 -253 -1169 -434
-1725 -504 -71 -8 -144 -18 -161 -21 l-31 -4 1 -323 1 -322 2313 -1 2314 -1
-541 541 -541 541 0 365 -1 365 -122 128 -122 129 -100 -83z"/>
<path d="M14030 7806 c0 -2 8 -10 18 -17 15 -13 16 -12 3 4 -13 16 -21 21 -21
13z"/>
<path d="M14070 7766 c0 -2 8 -10 18 -17 15 -13 16 -12 3 4 -13 16 -21 21 -21
13z"/>
<path d="M14110 7726 c0 -2 8 -10 18 -17 15 -13 16 -12 3 4 -13 16 -21 21 -21
13z"/>
<path d="M14180 7656 c0 -2 8 -10 18 -17 15 -13 16 -12 3 4 -13 16 -21 21 -21
13z"/>
<path d="M14220 7616 c0 -2 8 -10 18 -17 15 -13 16 -12 3 4 -13 16 -21 21 -21
13z"/>
<path d="M14260 7576 c0 -2 8 -10 18 -17 15 -13 16 -12 3 4 -13 16 -21 21 -21
13z"/>
<path d="M13205 5870 c10 -11 20 -20 23 -20 3 0 -3 9 -13 20 -10 11 -20 20
-23 20 -3 0 3 -9 13 -20z"/>
<path d="M0 2925 l0 -2925 2925 0 2925 0 0 2925 0 2925 -2925 0 -2925 0 0
-2925z"/>
<path d="M7314 2925 l0 -2925 2926 0 2926 0 0 2925 0 2925 -2926 0 -2926 0 0
-2925z"/>
<path d="M16375 5460 l390 -390 -688 -687 -687 -688 -380 380 -380 380 0
-2228 0 -2227 2925 0 2925 0 0 2925 0 2925 -2247 0 -2248 0 390 -390z"/>
<path d="M13240 5836 c0 -2 8 -10 18 -17 15 -13 16 -12 3 4 -13 16 -21 21 -21
13z"/>
<path d="M13390 5686 c0 -2 8 -10 18 -17 15 -13 16 -12 3 4 -13 16 -21 21 -21
13z"/>
</g>
</svg>
