<svg
  width="512"
  height="512"
  xmlns="http://www.w3.org/2000/svg"
  stroke-width="0.75"
  viewBox="0 0 512 512"
  style="background-color: #1e1e1e"
>
  <g transform="scale(9.1428)">
    <path d="m0,0l16,0l0,16l-16,0l0,-16z" stroke="#cecece" fill="none"/>
    <path d="m20,0l16,0l0,16l-16,0l0,-16z" stroke="#cecece" fill="none"/>
    <path d="m0,20l16,0l0,16l-16,0l0,-16z" stroke="#cecece" fill="none"/>
    <path d="m20,20l16,0l0,16l-16,0l0,-16z" stroke="#cecece" fill="none"/>

    <path d="m0,0l16,0l0,2.41823l-13.54903,13.31635l-2.45097,0.26542l0,-16z" fill="#cecece"/>
    <path d="m20,0l16,0l0,16l-2.11777,-0.07791l-13.6485,-13.63429l-0.23373,-2.2878z" fill="#cecece"/>
    <path d="m0,20l2.00001,0.05148l13.91489,14.09403l0.08511,1.85449l-16,0l0,-16l-0.00001,0z" fill="#cecece"/>
    <path d="m33.62075,20.07966l2.37925,-0.07966l0,16l-16,0l0.15931,-2.18529l13.46144,-13.73505z" fill="#cecece"/>

    <path d="m40,0l16,0l0,16l-16,0l0,-16z" fill="#cecece"/>
    <path d="m40,20l16,0l0,16l-16,0l0,-16z" fill="#cecece"/>
    <path d="m0,40l16,0l0,16l-16,0l0,-16z" fill="#cecece"/>
    <path d="m20,40l16,0l0,16l-16,0l0,-16z" fill="#cecece"/>
    <path d="m40,40l16,0l0,16l-16,0l0,-16z" fill="#cecece"/>

    <path d="m33.24228,29.51162l-1.99455,0l-0.70693,-0.68168c2.47425,-2.8782 3.96384,-6.61482 3.96384,-10.67965c0,-9.06381 -7.34699,-16.41081 -16.41081,-16.41081s-16.41081,7.34699 -16.41081,16.41081s7.34699,16.41081 16.41081,16.41081c4.06483,0 7.80145,-1.48959 10.67965,-3.96384l0.68168,0.70693l0,1.99455l12.6237,12.59844l3.76186,-3.76186l-12.59844,-12.6237l-0.00001,0.00001l0.00001,-0.00001zm-15.14844,0c-6.2866,0 -11.36133,-5.07472 -11.36133,-11.36133s5.07472,-11.36133 11.36133,-11.36133s11.36133,5.07472 11.36133,11.36133s-5.07472,11.36133 -11.36133,11.36133z" fill="#1e1e1e"/>
  </g>
</svg>
